<svg xmlns="http://www.w3.org/2000/svg" x="0px" y="0px" width="100" fill="currentColor" height="100" viewBox="0 0 100 100">
<path d="M 24 15 C 19.041484 15 15 19.041484 15 24 L 15 61 C 15 65.958516 19.041484 70 24 70 L 61 70 C 65.958516 70 70 65.958516 70 61 L 70 24 C 70 19.041484 65.958516 15 61 15 L 24 15 z M 24 17 L 61 17 C 64.877484 17 68 20.122516 68 24 L 68 61 C 68 64.877484 64.877484 68 61 68 L 24 68 C 20.122516 68 17 64.877484 17 61 L 17 24 C 17 20.122516 20.122516 17 24 17 z M 24.5 20 C 22.027273 20 20 22.027273 20 24.5 L 20 60.5 C 20 62.972727 22.027273 65 24.5 65 L 60.5 65 C 62.972727 65 65 62.972727 65 60.5 L 65 43 A 0.50005 0.50005 0 1 0 64 43 L 64 60.5 C 64 62.427273 62.427273 64 60.5 64 L 24.5 64 C 22.572727 64 21 62.427273 21 60.5 L 21 24.5 C 21 22.572727 22.572727 21 24.5 21 L 53.5 21 A 0.50005 0.50005 0 1 0 53.5 20 L 24.5 20 z M 74 30 A 1.0001 1.0001 0 1 0 74 32 L 76 32 C 79.877484 32 83 35.122516 83 39 L 83 76 C 83 79.877484 79.877484 83 76 83 L 39 83 C 35.122516 83 32 79.877484 32 76 L 32 74 A 1.0001 1.0001 0 1 0 30 74 L 30 76 C 30 80.958516 34.041484 85 39 85 L 76 85 C 80.958516 85 85 80.958516 85 76 L 85 39 C 85 34.041484 80.958516 30 76 30 L 74 30 z M 64.492188 30.992188 A 0.50005 0.50005 0 0 0 64 31.5 L 64 33.5 A 0.50005 0.50005 0 1 0 65 33.5 L 65 31.5 A 0.50005 0.50005 0 0 0 64.492188 30.992188 z M 64.492188 34.992188 A 0.50005 0.50005 0 0 0 64 35.5 L 64 39.5 A 0.50005 0.50005 0 1 0 65 39.5 L 65 35.5 A 0.50005 0.50005 0 0 0 64.492188 34.992188 z"></path>
</svg>