<svg width="26" height="26" viewBox="0 0 26 26" fill="none" xmlns="http://www.w3.org/2000/svg">
<path opacity="0.4" d="M19.5 22.2083H18.4167V21.9375C18.4167 20.7458 17.4417 19.7708 16.25 19.7708H13.8125V17.29C13.5417 17.3225 13.2708 17.3333 13 17.3333C12.7292 17.3333 12.4583 17.3225 12.1875 17.29V19.7708H9.75C8.55833 19.7708 7.58333 20.7458 7.58333 21.9375V22.2083H6.5C6.05583 22.2083 5.6875 22.5766 5.6875 23.0208C5.6875 23.465 6.05583 23.8333 6.5 23.8333H19.5C19.9442 23.8333 20.3125 23.465 20.3125 23.0208C20.3125 22.5766 19.9442 22.2083 19.5 22.2083Z" fill="#44A656"/>
<path opacity="0.4" d="M5.98021 12.61C5.26521 12.3392 4.63688 11.895 4.13855 11.3967C3.13105 10.2809 2.47021 8.94835 2.47021 7.38835C2.47021 5.82835 3.69438 4.60419 5.25438 4.60419H5.86105C5.57938 5.17835 5.41688 5.81752 5.41688 6.50002V9.75002C5.41688 10.7684 5.61188 11.7325 5.98021 12.61Z" fill="#44A656"/>
<path opacity="0.4" d="M23.53 7.38835C23.53 8.94835 22.8692 10.2809 21.8617 11.3967C21.3634 11.895 20.735 12.3392 20.02 12.61C20.3884 11.7325 20.5834 10.7684 20.5834 9.75002V6.50002C20.5834 5.81752 20.4209 5.17835 20.1392 4.60419H20.7459C22.3059 4.60419 23.53 5.82835 23.53 7.38835Z" fill="#44A656"/>
<path d="M16.2498 2.16669H9.74984C7.35567 2.16669 5.4165 4.10585 5.4165 6.50002V9.75002C5.4165 13.9425 8.80734 17.3334 12.9998 17.3334C17.1923 17.3334 20.5832 13.9425 20.5832 9.75002V6.50002C20.5832 4.10585 18.644 2.16669 16.2498 2.16669ZM16.0765 9.15419L15.4048 9.97752C15.2965 10.0967 15.2207 10.335 15.2315 10.4975L15.2965 11.5592C15.3398 12.2092 14.874 12.545 14.2673 12.3067L13.2815 11.9167C13.1298 11.8625 12.8698 11.8625 12.7182 11.9167L11.7323 12.3067C11.1257 12.545 10.6598 12.2092 10.7032 11.5592L10.7682 10.4975C10.779 10.335 10.7032 10.0967 10.5948 9.97752L9.92317 9.15419C9.50067 8.65585 9.68484 8.10335 10.3132 7.94085L11.3423 7.68085C11.5048 7.63752 11.6998 7.48585 11.7865 7.34502L12.3607 6.45669C12.7182 5.90419 13.2815 5.90419 13.639 6.45669L14.2132 7.34502C14.2998 7.48585 14.4948 7.63752 14.6573 7.68085L15.6865 7.94085C16.3148 8.10335 16.499 8.65585 16.0765 9.15419Z" fill="#44A656"/>
<path opacity="0.4" d="M16.0767 9.15417L15.4051 9.97751C15.2967 10.0967 15.2209 10.335 15.2317 10.4975L15.2967 11.5592C15.3401 12.2092 14.8742 12.545 14.2676 12.3067L13.2817 11.9167C13.1301 11.8625 12.8701 11.8625 12.7184 11.9167L11.7326 12.3067C11.1259 12.545 10.6601 12.2092 10.7034 11.5592L10.7684 10.4975C10.7792 10.335 10.7034 10.0967 10.5951 9.97751L9.92338 9.15417C9.50088 8.65584 9.68505 8.10334 10.3134 7.94084L11.3426 7.68084C11.5051 7.63751 11.7001 7.48584 11.7867 7.34501L12.3609 6.45667C12.7184 5.90417 13.2817 5.90417 13.6392 6.45667L14.2134 7.34501C14.3001 7.48584 14.4951 7.63751 14.6576 7.68084L15.6867 7.94084C16.3151 8.10334 16.4992 8.65584 16.0767 9.15417Z" fill="#44A656"/>
</svg>
