<svg width="18" height="18" viewBox="0 0 18 18" fill="none" xmlns="http://www.w3.org/2000/svg">
<path opacity="0.4" d="M15.4648 6.3375C14.6773 2.8725 11.6548 1.3125 8.99983 1.3125C8.99983 1.3125 8.99983 1.3125 8.99233 1.3125C6.34483 1.3125 3.31483 2.865 2.52733 6.33C1.64983 10.2 4.01983 13.4775 6.16483 15.54C6.95983 16.305 7.97983 16.6875 8.99983 16.6875C10.0198 16.6875 11.0398 16.305 11.8273 15.54C13.9723 13.4775 16.3423 10.2075 15.4648 6.3375Z" fill="#445FA6"/>
<path d="M9.0002 10.095C10.305 10.095 11.3627 9.03727 11.3627 7.7325C11.3627 6.42772 10.305 5.37 9.0002 5.37C7.69542 5.37 6.6377 6.42772 6.6377 7.7325C6.6377 9.03727 7.69542 10.095 9.0002 10.095Z" fill="#445FA6"/>
</svg>
