<svg width="24" height="24" viewBox="0 0 24 24" fill="none" xmlns="http://www.w3.org/2000/svg">
<path opacity="0.4" d="M20.3992 16.3298C20.1192 17.0798 19.5292 17.6498 18.7592 17.9098C17.6792 18.2698 16.5692 18.5398 15.4492 18.7298C15.3392 18.7498 15.2292 18.7698 15.1192 18.7798C14.9392 18.8098 14.7592 18.8298 14.5792 18.8498C14.3592 18.8798 14.1292 18.8998 13.8992 18.9198C13.2692 18.9698 12.6492 18.9998 12.0192 18.9998C11.3792 18.9998 10.7392 18.9698 10.1092 18.9098C9.83922 18.8898 9.57923 18.8598 9.31923 18.8198C9.16923 18.7998 9.01923 18.7798 8.87923 18.7598C8.76923 18.7398 8.65923 18.7298 8.54923 18.7098C7.43923 18.5298 6.33923 18.2598 5.26923 17.8998C4.46923 17.6298 3.85923 17.0598 3.58923 16.3298C3.31923 15.6098 3.41923 14.7698 3.84923 14.0498L4.97923 12.1698C5.21923 11.7598 5.43923 10.9698 5.43923 10.4898V8.62981C5.43923 4.9998 8.38923 2.0498 12.0192 2.0498C15.6392 2.0498 18.5892 4.9998 18.5892 8.62981V10.4898C18.5892 10.9698 18.8092 11.7598 19.0592 12.1698L20.1892 14.0498C20.5992 14.7498 20.6792 15.5698 20.3992 16.3298Z" fill="#44A656"/>
<path d="M12.0007 10.7601C11.5807 10.7601 11.2407 10.4201 11.2407 10.0001V6.90014C11.2407 6.48014 11.5807 6.14014 12.0007 6.14014C12.4207 6.14014 12.7607 6.48014 12.7607 6.90014V10.0001C12.7507 10.4201 12.4107 10.7601 12.0007 10.7601Z" fill="#44A656"/>
<path d="M14.8302 20.01C14.4102 21.17 13.3002 22 12.0002 22C11.2102 22 10.4302 21.68 9.88018 21.11C9.56018 20.81 9.32018 20.41 9.18018 20C9.31018 20.02 9.44018 20.03 9.58018 20.05C9.81018 20.08 10.0502 20.11 10.2902 20.13C10.8602 20.18 11.4402 20.21 12.0202 20.21C12.5902 20.21 13.1602 20.18 13.7202 20.13C13.9302 20.11 14.1402 20.1 14.3402 20.07C14.5002 20.05 14.6602 20.03 14.8302 20.01Z" fill="#44A656"/>
</svg>
