<svg width="24" height="24" viewBox="0 0 24 24" fill="none" xmlns="http://www.w3.org/2000/svg">
<path d="M12 12.9998C13.6569 12.9998 15 11.6566 15 9.99976C15 8.3429 13.6569 6.99976 12 6.99976C10.3431 6.99976 9 8.3429 9 9.99976C9 11.6566 10.3431 12.9998 12 12.9998Z" stroke="white" stroke-width="1.5" stroke-linecap="round" stroke-linejoin="round"/>
<path d="M16.11 15.6599L17 20.9999L12 19.9999L7 20.9999L7.89 15.6599" stroke="white" stroke-width="1.5" stroke-linecap="round" stroke-linejoin="round"/>
<path d="M12 17C15.866 17 19 13.866 19 10C19 6.13401 15.866 3 12 3C8.13401 3 5 6.13401 5 10C5 13.866 8.13401 17 12 17Z" stroke="white" stroke-width="1.5" stroke-linecap="round" stroke-linejoin="round"/>
</svg>
