<svg width="24" height="24" viewBox="0 0 24 24" fill="none" xmlns="http://www.w3.org/2000/svg">
<path opacity="0.4" d="M18.3847 5.94635L13.6283 3.19555C12.7175 2.67115 11.2915 2.67115 10.3807 3.19555L5.57828 5.96475C3.67388 7.25275 3.56348 7.44595 3.56348 9.49755V14.4931C3.56348 16.5447 3.67388 16.7471 5.61508 18.0535L10.3715 20.8043C10.8315 21.0711 11.4203 21.1999 11.9999 21.1999C12.5795 21.1999 13.1683 21.0711 13.6191 20.8043L18.4215 18.0351C20.3259 16.7471 20.4363 16.5539 20.4363 14.5023V9.49755C20.4363 7.44595 20.3259 7.25275 18.3847 5.94635Z" fill="#44A656"/>
<path d="M12.0003 14.99C13.6516 14.99 14.9903 13.6513 14.9903 12C14.9903 10.3487 13.6516 9.01001 12.0003 9.01001C10.3489 9.01001 9.01025 10.3487 9.01025 12C9.01025 13.6513 10.3489 14.99 12.0003 14.99Z" fill="#44A656"/>
</svg>
