<svg width="26" height="26" viewBox="0 0 26 26" fill="none" xmlns="http://www.w3.org/2000/svg">
<path d="M6.21846 17.3334C6.33763 16.8025 6.12097 16.0442 5.7418 15.665L3.1093 13.0325C2.28597 12.2092 1.96097 11.3317 2.1993 10.5734C2.44847 9.81502 3.21763 9.29502 4.36597 9.10002L7.74596 8.53669C8.23346 8.45002 8.8293 8.01669 9.0568 7.57252L10.9201 3.83502C11.4618 2.76252 12.1985 2.16669 13.0001 2.16669C13.8018 2.16669 14.5385 2.76252 15.0801 3.83502L16.9435 7.57252C17.0843 7.85419 17.3768 8.12502 17.691 8.30919L6.02347 19.9767C5.8718 20.1284 5.6118 19.9875 5.65513 19.7709L6.21846 17.3334Z" fill="#44A656"/>
<path opacity="0.4" d="M20.2582 15.665C19.8682 16.055 19.6515 16.8025 19.7815 17.3333L20.529 20.5942C20.8432 21.9483 20.6482 22.9667 19.9765 23.4542C19.7057 23.6492 19.3807 23.7467 19.0015 23.7467C18.449 23.7467 17.799 23.5408 17.084 23.1183L13.9099 21.2333C13.4115 20.9408 12.5882 20.9408 12.0899 21.2333L8.9157 23.1183C7.7132 23.8225 6.68404 23.9417 6.0232 23.4542C5.77404 23.27 5.58987 23.0208 5.4707 22.6958L18.644 9.52249C19.1424 9.02416 19.8465 8.79666 20.529 8.91582L21.6232 9.09999C22.7715 9.29499 23.5407 9.81499 23.7899 10.5733C24.0282 11.3317 23.7032 12.2092 22.8799 13.0325L20.2582 15.665Z" fill="#44A656"/>
</svg>
