<svg width="22" height="22" viewBox="0 0 22 22" fill="none" xmlns="http://www.w3.org/2000/svg">
<path d="M8.24992 20.1667H13.7499C18.3333 20.1667 20.1666 18.3334 20.1666 13.75V8.25004C20.1666 3.66671 18.3333 1.83337 13.7499 1.83337H8.24992C3.66659 1.83337 1.83325 3.66671 1.83325 8.25004V13.75C1.83325 18.3334 3.66659 20.1667 8.24992 20.1667Z" stroke="white" stroke-width="1.5" stroke-linecap="round" stroke-linejoin="round"/>
<path d="M13.1552 10.0009C13.0635 10.6518 12.6785 11.2018 12.1468 11.5318V13.3468C12.1468 13.9793 11.6335 14.4926 11.001 14.4926C10.3685 14.4926 9.85517 13.9793 9.85517 13.3468V11.5318C9.32351 11.2018 8.9385 10.6518 8.84683 10.0009C8.8285 9.90011 8.81934 9.79011 8.81934 9.68011C8.81934 8.28677 10.1394 7.20511 11.5877 7.59011C12.321 7.78261 12.9168 8.37845 13.1093 9.11178C13.1918 9.41428 13.201 9.71678 13.1552 10.0009Z" stroke="white" stroke-width="1.5" stroke-miterlimit="10"/>
<path d="M20.168 10.001H13.1555" stroke="white" stroke-width="1.5" stroke-miterlimit="10"/>
<path d="M8.84575 10.0009H1.83325" stroke="white" stroke-width="1.5" stroke-miterlimit="10"/>
</svg>
